<svg viewBox="0 0 150 100" fill="none" xmlns="http://www.w3.org/2000/svg">
<g id="crm-upload">
<path id="Rectangle 1" d="M16 15C16 12.7909 17.7909 11 20 11H131C132.657 11 134 12.3431 134 14V86C134 87.6569 132.657 89 131 89H19C17.3431 89 16 87.6569 16 86V15Z" stroke="#AAAAAA" stroke-width="2" stroke-linecap="round" stroke-dasharray="5 5"/>
<g id="Badge">
<g clip-path="url(#clip0_96_40)">
<rect x="23" y="18" width="33" height="13" rx="6.5" fill="#2B8C42"/>
<path id="CRM" d="M31.79 28.65C31.07 28.65 30.4483 28.4933 29.925 28.18C29.405 27.8667 29.0033 27.4283 28.72 26.865C28.44 26.3017 28.3 25.6467 28.3 24.9C28.3 24.1533 28.44 23.4983 28.72 22.935C29.0033 22.3717 29.405 21.9333 29.925 21.62C30.4483 21.3067 31.07 21.15 31.79 21.15C32.6167 21.15 33.31 21.355 33.87 21.765C34.4333 22.175 34.83 22.73 35.06 23.43L33.69 23.81C33.5567 23.3733 33.3317 23.035 33.015 22.795C32.6983 22.5517 32.29 22.43 31.79 22.43C31.3333 22.43 30.9517 22.5317 30.645 22.735C30.3417 22.9383 30.1133 23.225 29.96 23.595C29.8067 23.965 29.73 24.4 29.73 24.9C29.73 25.4 29.8067 25.835 29.96 26.205C30.1133 26.575 30.3417 26.8617 30.645 27.065C30.9517 27.2683 31.3333 27.37 31.79 27.37C32.29 27.37 32.6983 27.2483 33.015 27.005C33.3317 26.7617 33.5567 26.4233 33.69 25.99L35.06 26.37C34.83 27.07 34.4333 27.625 33.87 28.035C33.31 28.445 32.6167 28.65 31.79 28.65ZM36.1609 28.5V21.3H39.2009C39.2709 21.3 39.3643 21.3033 39.4809 21.31C39.6009 21.3133 39.7076 21.3233 39.8009 21.34C40.2309 21.4067 40.5826 21.5483 40.8559 21.765C41.1326 21.9817 41.3359 22.255 41.4659 22.585C41.5959 22.9117 41.6609 23.2767 41.6609 23.68C41.6609 24.2833 41.5109 24.8 41.2109 25.23C40.9109 25.6567 40.4409 25.92 39.8009 26.02L39.2009 26.06H37.5209V28.5H36.1609ZM40.2209 28.5L38.8009 25.57L40.2009 25.3L41.7609 28.5H40.2209ZM37.5209 24.79H39.1409C39.2109 24.79 39.2876 24.7867 39.3709 24.78C39.4543 24.7733 39.5309 24.76 39.6009 24.74C39.7843 24.69 39.9259 24.6067 40.0259 24.49C40.1259 24.37 40.1943 24.2383 40.2309 24.095C40.2709 23.9483 40.2909 23.81 40.2909 23.68C40.2909 23.55 40.2709 23.4133 40.2309 23.27C40.1943 23.1233 40.1259 22.9917 40.0259 22.875C39.9259 22.755 39.7843 22.67 39.6009 22.62C39.5309 22.6 39.4543 22.5867 39.3709 22.58C39.2876 22.5733 39.2109 22.57 39.1409 22.57H37.5209V24.79ZM42.8602 28.5V21.3H44.0802L46.4602 26.08L48.8402 21.3H50.0602V28.5H48.7902V24.2L46.7002 28.5H46.2202L44.1302 24.2V28.5H42.8602Z" fill="white"/>
</g>
</g>
<g id="icon upload">
<path id="Vector" d="M57 62.25V66.75C57 67.9435 57.4741 69.0881 58.318 69.932C59.1619 70.7759 60.3065 71.25 61.5 71.25H88.5C89.6935 71.25 90.8381 70.7759 91.682 69.932C92.5259 69.0881 93 67.9435 93 66.75V62.25" stroke="#AAAAAA" stroke-width="2.5" stroke-linecap="round" stroke-linejoin="round"/>
<path id="Vector_2" d="M63.75 44.25L75 33L86.25 44.25" stroke="#AAAAAA" stroke-width="2.5" stroke-linecap="round" stroke-linejoin="round"/>
<path id="Vector_3" d="M74.9999 33V60" stroke="#AAAAAA" stroke-width="2.5" stroke-linecap="round" stroke-linejoin="round"/>
</g>
</g>
<defs>
<clipPath id="clip0_96_40">
<rect x="23" y="18" width="33" height="13" rx="6.5" fill="white"/>
</clipPath>
</defs>
</svg>
