<svg viewBox="0 0 150 100" fill="none" xmlns="http://www.w3.org/2000/svg">
<g id="crm-questionaire-select-option">
<g id="Group" opacity="0.25">
<path id="Vector" d="M124.8 51H26C24.3431 51 23 52.3431 23 54V69.92C23 71.5769 24.3431 72.92 26 72.92H124.8C126.457 72.92 127.8 71.5769 127.8 69.92V54C127.8 52.3431 126.457 51 124.8 51Z" fill="#AAAAAA" fill-opacity="0.75"/>
</g>
<path id="Rectangle 1" d="M16 15C16 12.7909 17.7909 11 20 11H131C132.657 11 134 12.3431 134 14V86C134 87.6569 132.657 89 131 89H19C17.3431 89 16 87.6569 16 86V15Z" stroke="#AAAAAA" stroke-width="2" stroke-linecap="round" stroke-dasharray="5 5"/>
<g id="Badge">
<g clip-path="url(#clip0_82_66)">
<rect x="23" y="18" width="33" height="13" rx="6.5" fill="#2B8C42"/>
<path id="CRM" d="M31.79 28.65C31.07 28.65 30.4483 28.4933 29.925 28.18C29.405 27.8667 29.0033 27.4283 28.72 26.865C28.44 26.3017 28.3 25.6467 28.3 24.9C28.3 24.1533 28.44 23.4983 28.72 22.935C29.0033 22.3717 29.405 21.9333 29.925 21.62C30.4483 21.3067 31.07 21.15 31.79 21.15C32.6167 21.15 33.31 21.355 33.87 21.765C34.4333 22.175 34.83 22.73 35.06 23.43L33.69 23.81C33.5567 23.3733 33.3317 23.035 33.015 22.795C32.6983 22.5517 32.29 22.43 31.79 22.43C31.3333 22.43 30.9517 22.5317 30.645 22.735C30.3417 22.9383 30.1133 23.225 29.96 23.595C29.8067 23.965 29.73 24.4 29.73 24.9C29.73 25.4 29.8067 25.835 29.96 26.205C30.1133 26.575 30.3417 26.8617 30.645 27.065C30.9517 27.2683 31.3333 27.37 31.79 27.37C32.29 27.37 32.6983 27.2483 33.015 27.005C33.3317 26.7617 33.5567 26.4233 33.69 25.99L35.06 26.37C34.83 27.07 34.4333 27.625 33.87 28.035C33.31 28.445 32.6167 28.65 31.79 28.65ZM36.1609 28.5V21.3H39.2009C39.2709 21.3 39.3643 21.3033 39.4809 21.31C39.6009 21.3133 39.7076 21.3233 39.8009 21.34C40.2309 21.4067 40.5826 21.5483 40.8559 21.765C41.1326 21.9817 41.3359 22.255 41.4659 22.585C41.5959 22.9117 41.6609 23.2767 41.6609 23.68C41.6609 24.2833 41.5109 24.8 41.2109 25.23C40.9109 25.6567 40.4409 25.92 39.8009 26.02L39.2009 26.06H37.5209V28.5H36.1609ZM40.2209 28.5L38.8009 25.57L40.2009 25.3L41.7609 28.5H40.2209ZM37.5209 24.79H39.1409C39.2109 24.79 39.2876 24.7867 39.3709 24.78C39.4543 24.7733 39.5309 24.76 39.6009 24.74C39.7843 24.69 39.9259 24.6067 40.0259 24.49C40.1259 24.37 40.1943 24.2383 40.2309 24.095C40.2709 23.9483 40.2909 23.81 40.2909 23.68C40.2909 23.55 40.2709 23.4133 40.2309 23.27C40.1943 23.1233 40.1259 22.9917 40.0259 22.875C39.9259 22.755 39.7843 22.67 39.6009 22.62C39.5309 22.6 39.4543 22.5867 39.3709 22.58C39.2876 22.5733 39.2109 22.57 39.1409 22.57H37.5209V24.79ZM42.8602 28.5V21.3H44.0802L46.4602 26.08L48.8402 21.3H50.0602V28.5H48.7902V24.2L46.7002 28.5H46.2202L44.1302 24.2V28.5H42.8602Z" fill="white"/>
</g>
</g>
<g id="Ebene_1" clip-path="url(#clip1_82_66)">
<g id="Group_2" opacity="0.25">
<path id="Vector_2" d="M114.624 36H36.376C35.0638 36 34 37.0417 34 38.3266V50.6734C34 51.9583 35.0638 53 36.376 53H114.624C115.936 53 117 51.9583 117 50.6734V38.3266C117 37.0417 115.936 36 114.624 36Z" fill="#AAAAAA" fill-opacity="0.65"/>
</g>
<g id="Group_3" opacity="0.75">
<path id="Vector_3" d="M114.624 37.5511C115.06 37.5511 115.416 37.9001 115.416 38.3266V50.6734C115.416 51.0999 115.06 51.4489 114.624 51.4489H36.376C35.9404 51.4489 35.584 51.0999 35.584 50.6734V38.3266C35.584 37.9001 35.9404 37.5511 36.376 37.5511H114.624ZM114.624 36H36.376C35.0613 36 34 37.0392 34 38.3266V50.6734C34 51.9608 35.0613 53 36.376 53H114.624C115.939 53 117 51.9608 117 50.6734V38.3266C117 37.0392 115.939 36 114.624 36Z" fill="#AAAAAA" fill-opacity="0.65"/>
</g>
<path id="Vector_4" d="M41.6426 48.5639C41.1357 48.5639 40.6764 48.4786 40.2725 48.3002C39.8686 48.1218 39.528 47.8736 39.2667 47.5479C39.0053 47.2222 38.839 46.8344 38.7677 46.3768L40.1141 46.1829C40.2091 46.5707 40.4071 46.8654 40.7001 47.0748C41.0011 47.2842 41.3337 47.385 41.7139 47.385C41.9277 47.385 42.1336 47.354 42.3316 47.2842C42.5296 47.2144 42.6959 47.1214 42.8227 46.9973C42.9494 46.8732 43.0127 46.7103 43.0127 46.5242C43.0127 46.4544 43.0048 46.3923 42.9811 46.3303C42.9573 46.2682 42.9256 46.2062 42.8781 46.1519C42.8306 46.0976 42.7593 46.0433 42.6722 45.9968C42.5851 45.9503 42.4742 45.9037 42.3396 45.865L40.5655 45.3531C40.4309 45.3143 40.2804 45.26 40.0982 45.198C39.924 45.1282 39.7498 45.0351 39.5914 44.9033C39.433 44.7714 39.2904 44.6086 39.1795 44.3992C39.0687 44.1898 39.0132 43.9261 39.0132 43.6081C39.0132 43.1583 39.132 42.786 39.3617 42.4836C39.5914 42.1889 39.9002 41.964 40.2883 41.8166C40.6764 41.6693 41.1041 41.5995 41.5713 41.5995C42.0465 41.5995 42.4663 41.6848 42.8385 41.8399C43.2107 41.995 43.5196 42.2121 43.773 42.4991C44.0265 42.786 44.2007 43.1428 44.3116 43.5616L42.9177 43.7943C42.8702 43.5771 42.7751 43.391 42.6405 43.2436C42.5059 43.0963 42.3396 42.9799 42.1495 42.9024C41.9594 42.8248 41.7614 42.786 41.5555 42.7783C41.3496 42.7783 41.1595 42.8016 40.9853 42.8558C40.8031 42.9179 40.6605 43.0032 40.5497 43.1195C40.4388 43.2359 40.3833 43.3677 40.3833 43.5306C40.3833 43.6779 40.4309 43.7943 40.518 43.8873C40.613 43.9804 40.7239 44.0502 40.8665 44.1045C41.009 44.1588 41.1516 44.2053 41.2941 44.2441L42.4821 44.562C42.6563 44.6086 42.8543 44.6706 43.0682 44.7482C43.282 44.8257 43.4879 44.9266 43.6859 45.0661C43.8839 45.2057 44.0502 45.3764 44.177 45.6013C44.3037 45.8184 44.367 46.0976 44.367 46.4389C44.367 46.7956 44.2878 47.1136 44.1374 47.385C43.9869 47.6565 43.773 47.8736 43.5196 48.052C43.2583 48.2304 42.9652 48.3622 42.6405 48.4475C42.3158 48.5328 41.9752 48.5794 41.6268 48.5794L41.6426 48.5639Z" fill="#AAAAAA" fill-opacity="0.65"/>
<path id="Vector_5" d="M47.8201 48.5639C47.2974 48.5639 46.8301 48.4553 46.4341 48.2304C46.0381 48.0055 45.7214 47.703 45.4917 47.3152C45.262 46.9275 45.1511 46.4776 45.1511 45.9735C45.1511 45.4229 45.262 44.9498 45.4838 44.5388C45.7055 44.1355 46.0144 43.8175 46.4025 43.5926C46.7905 43.3677 47.242 43.2514 47.7488 43.2514C48.2874 43.2514 48.7467 43.3755 49.119 43.6236C49.4991 43.8718 49.7763 44.2208 49.9585 44.6706C50.1406 45.1204 50.204 45.6478 50.1485 46.2605H48.8735V45.7952C48.8735 45.2833 48.7943 44.9188 48.6279 44.6939C48.4616 44.469 48.1923 44.3526 47.8122 44.3526C47.3687 44.3526 47.0519 44.4845 46.838 44.7482C46.6321 45.0119 46.5292 45.3996 46.5292 45.9115C46.5292 46.3768 46.6321 46.7413 46.838 46.9973C47.044 47.2532 47.3528 47.385 47.7568 47.385C48.0102 47.385 48.224 47.3307 48.4062 47.2222C48.5883 47.1136 48.723 46.9585 48.818 46.7491L50.1089 47.1136C49.9189 47.5712 49.61 47.9279 49.1902 48.1838C48.7705 48.4398 48.3191 48.5639 47.8201 48.5639ZM46.1173 46.2682V45.3298H49.5229V46.2682H46.1173Z" fill="#AAAAAA" fill-opacity="0.65"/>
<path id="Vector_6" d="M51.3048 48.4243V41.5839H52.5957V48.4243H51.3048Z" fill="#AAAAAA" fill-opacity="0.65"/>
<path id="Vector_7" d="M56.4131 48.5639C55.8904 48.5639 55.4231 48.4553 55.0272 48.2304C54.6312 48.0055 54.3144 47.703 54.0847 47.3152C53.855 46.9275 53.7441 46.4776 53.7441 45.9735C53.7441 45.4229 53.855 44.9498 54.0768 44.5388C54.2985 44.1355 54.6074 43.8175 54.9955 43.5926C55.3835 43.3677 55.835 43.2514 56.3418 43.2514C56.8804 43.2514 57.3398 43.3755 57.712 43.6236C58.0921 43.8718 58.3693 44.2208 58.5515 44.6706C58.7336 45.1204 58.797 45.6478 58.7416 46.2605H57.4665V45.7952C57.4665 45.2833 57.3873 44.9188 57.221 44.6939C57.0546 44.469 56.7854 44.3526 56.4052 44.3526C55.9617 44.3526 55.6449 44.4845 55.4311 44.7482C55.2252 45.0119 55.1222 45.3996 55.1222 45.9115C55.1222 46.3768 55.2252 46.7413 55.4311 46.9973C55.637 47.2532 55.9459 47.385 56.3498 47.385C56.6032 47.385 56.817 47.3307 56.9992 47.2222C57.1814 47.1136 57.316 46.9585 57.411 46.7491L58.702 47.1136C58.5119 47.5712 58.203 47.9279 57.7833 48.1838C57.3635 48.4398 56.9121 48.5639 56.4131 48.5639ZM54.7104 46.2682V45.3298H58.1159V46.2682H54.7104Z" fill="#AAAAAA" fill-opacity="0.65"/>
<path id="Vector_8" d="M62.0679 48.5639C61.5373 48.5639 61.0779 48.4475 60.6978 48.2149C60.3176 47.9822 60.0246 47.6642 59.8266 47.2687C59.6207 46.8654 59.5256 46.4156 59.5256 45.9115C59.5256 45.4074 59.6286 44.9498 59.8424 44.5465C60.0563 44.1432 60.3493 43.833 60.7295 43.6004C61.1096 43.3677 61.569 43.2591 62.0917 43.2591C62.6936 43.2591 63.2084 43.4065 63.6123 43.7089C64.0241 44.0114 64.2855 44.4147 64.3963 44.9343L63.1054 45.2678C63.0262 45.0041 62.8995 44.8025 62.7094 44.6551C62.5193 44.5078 62.3055 44.438 62.0679 44.438C61.7986 44.438 61.569 44.5 61.3947 44.6318C61.2205 44.7637 61.0938 44.9343 61.0066 45.1592C60.9274 45.3841 60.8799 45.6323 60.8799 45.9115C60.8799 46.3458 60.975 46.7026 61.1809 46.974C61.3789 47.2454 61.6719 47.385 62.06 47.385C62.353 47.385 62.5748 47.323 62.7253 47.1912C62.8757 47.0593 62.9945 46.8732 63.0658 46.6328L64.3884 46.9042C64.2459 47.4393 63.9687 47.8504 63.5648 48.1373C63.1608 48.4243 62.6619 48.5716 62.06 48.5716L62.0679 48.5639Z" fill="#AAAAAA" fill-opacity="0.65"/>
<path id="Vector_9" d="M64.7765 44.3759V43.3987H68.4275V44.3759H64.7765ZM68.4275 48.4243C68.0711 48.4863 67.7227 48.5173 67.3821 48.5096C67.0416 48.5018 66.7406 48.4398 66.4713 48.3312C66.2021 48.2226 66.0041 48.0443 65.8615 47.7961C65.7348 47.5634 65.6714 47.3308 65.6635 47.0981C65.6635 46.8577 65.6556 46.594 65.6556 46.2915V42.0027H66.9465V46.2217C66.9465 46.4156 66.9465 46.594 66.9465 46.7491C66.9465 46.9042 66.9861 47.0283 67.0416 47.1214C67.1524 47.2997 67.3346 47.3928 67.588 47.4083C67.8415 47.4238 68.1187 47.4083 68.4196 47.3695V48.4243H68.4275Z" fill="#AAAAAA" fill-opacity="0.65"/>
<path id="Vector_10" d="M102.356 42.693L105.508 45.7797C105.881 46.1442 106.49 46.1442 106.871 45.7797L110.213 42.5068" stroke="#AAAAAA" stroke-opacity="0.65" stroke-width="1.76" stroke-linecap="round" stroke-linejoin="round"/>
</g>
<g id="Option">
<path id="Vector_11" d="M67.2443 66V62.94C67.2443 62.792 67.2363 62.604 67.2203 62.376C67.2043 62.144 67.1543 61.912 67.0703 61.68C66.9863 61.448 66.8483 61.254 66.6563 61.098C66.4683 60.942 66.2003 60.864 65.8523 60.864C65.7123 60.864 65.5623 60.886 65.4023 60.93C65.2423 60.974 65.0923 61.06 64.9523 61.188C64.8123 61.312 64.6963 61.496 64.6043 61.74C64.5163 61.984 64.4723 62.308 64.4723 62.712L63.5363 62.268C63.5363 61.756 63.6403 61.276 63.8483 60.828C64.0563 60.38 64.3683 60.018 64.7843 59.742C65.2043 59.466 65.7323 59.328 66.3683 59.328C66.8763 59.328 67.2903 59.414 67.6103 59.586C67.9303 59.758 68.1783 59.976 68.3543 60.24C68.5343 60.504 68.6623 60.78 68.7383 61.068C68.8143 61.352 68.8603 61.612 68.8763 61.848C68.8923 62.084 68.9003 62.256 68.9003 62.364V66H67.2443ZM62.8163 66V59.52H64.2683V61.668H64.4723V66H62.8163Z" fill="#AAAAAA"/>
<path id="Vector_12" d="M58.2208 66.18C57.5688 66.18 56.9968 66.034 56.5048 65.742C56.0128 65.45 55.6288 65.048 55.3528 64.536C55.0808 64.02 54.9448 63.428 54.9448 62.76C54.9448 62.084 55.0848 61.49 55.3648 60.978C55.6448 60.462 56.0308 60.06 56.5228 59.772C57.0148 59.484 57.5808 59.34 58.2208 59.34C58.8728 59.34 59.4448 59.486 59.9368 59.778C60.4328 60.07 60.8188 60.474 61.0948 60.99C61.3708 61.502 61.5088 62.092 61.5088 62.76C61.5088 63.432 61.3688 64.026 61.0888 64.542C60.8128 65.054 60.4268 65.456 59.9308 65.748C59.4388 66.036 58.8688 66.18 58.2208 66.18ZM58.2208 64.656C58.7448 64.656 59.1348 64.48 59.3908 64.128C59.6508 63.772 59.7808 63.316 59.7808 62.76C59.7808 62.184 59.6488 61.724 59.3848 61.38C59.1248 61.036 58.7368 60.864 58.2208 60.864C57.8648 60.864 57.5728 60.944 57.3448 61.104C57.1168 61.264 56.9468 61.486 56.8348 61.77C56.7268 62.054 56.6728 62.384 56.6728 62.76C56.6728 63.34 56.8028 63.802 57.0628 64.146C57.3268 64.486 57.7128 64.656 58.2208 64.656Z" fill="#AAAAAA"/>
<path id="Vector_13" d="M51.874 58.62V57.18H53.506V58.62H51.874ZM51.874 66V59.52H53.506V66H51.874Z" fill="#AAAAAA"/>
<path id="Vector_14" d="M50.31 66C49.862 66.084 49.422 66.12 48.99 66.108C48.562 66.1 48.178 66.026 47.838 65.886C47.502 65.742 47.246 65.512 47.07 65.196C46.91 64.9 46.826 64.6 46.818 64.296C46.81 63.988 46.806 63.64 46.806 63.252V57.72H48.438V63.156C48.438 63.408 48.44 63.636 48.444 63.84C48.452 64.04 48.494 64.2 48.57 64.32C48.714 64.548 48.944 64.672 49.26 64.692C49.576 64.712 49.926 64.696 50.31 64.644V66ZM45.702 60.78V59.52H50.31V60.78H45.702Z" fill="#AAAAAA"/>
<path id="Vector_15" d="M42.1138 66.18C41.4698 66.18 40.9318 66.03 40.4998 65.73C40.0678 65.43 39.7418 65.022 39.5218 64.506C39.3058 63.99 39.1978 63.408 39.1978 62.76C39.1978 62.112 39.3058 61.53 39.5218 61.014C39.7378 60.498 40.0558 60.09 40.4758 59.79C40.8958 59.49 41.4138 59.34 42.0298 59.34C42.6498 59.34 43.1898 59.488 43.6498 59.784C44.1098 60.08 44.4658 60.486 44.7178 61.002C44.9738 61.514 45.1018 62.1 45.1018 62.76C45.1018 63.408 44.9758 63.99 44.7238 64.506C44.4758 65.022 44.1278 65.43 43.6798 65.73C43.2318 66.03 42.7098 66.18 42.1138 66.18ZM38.9218 68.88V59.52H40.3618V63.96H40.5658V68.88H38.9218ZM41.8498 64.728C42.2018 64.728 42.4898 64.64 42.7138 64.464C42.9378 64.288 43.1038 64.052 43.2118 63.756C43.3198 63.456 43.3738 63.124 43.3738 62.76C43.3738 62.4 43.3178 62.072 43.2058 61.776C43.0938 61.476 42.9198 61.238 42.6838 61.062C42.4518 60.882 42.1538 60.792 41.7898 60.792C41.4498 60.792 41.1738 60.874 40.9618 61.038C40.7538 61.202 40.6018 61.432 40.5058 61.728C40.4098 62.024 40.3618 62.368 40.3618 62.76C40.3618 63.152 40.4098 63.496 40.5058 63.792C40.6018 64.088 40.7578 64.318 40.9738 64.482C41.1938 64.646 41.4858 64.728 41.8498 64.728Z" fill="#AAAAAA"/>
<path id="Vector_16" d="M33.548 66.18C32.684 66.18 31.938 65.992 31.31 65.616C30.686 65.24 30.204 64.714 29.864 64.038C29.528 63.362 29.36 62.576 29.36 61.68C29.36 60.784 29.528 59.998 29.864 59.322C30.204 58.646 30.686 58.12 31.31 57.744C31.938 57.368 32.684 57.18 33.548 57.18C34.412 57.18 35.156 57.368 35.78 57.744C36.408 58.12 36.89 58.646 37.226 59.322C37.566 59.998 37.736 60.784 37.736 61.68C37.736 62.576 37.566 63.362 37.226 64.038C36.89 64.714 36.408 65.24 35.78 65.616C35.156 65.992 34.412 66.18 33.548 66.18ZM33.548 64.644C34.096 64.652 34.552 64.534 34.916 64.29C35.28 64.046 35.552 63.7 35.732 63.252C35.916 62.804 36.008 62.28 36.008 61.68C36.008 61.08 35.916 60.56 35.732 60.12C35.552 59.68 35.28 59.338 34.916 59.094C34.552 58.85 34.096 58.724 33.548 58.716C33 58.708 32.544 58.826 32.18 59.07C31.816 59.314 31.542 59.66 31.358 60.108C31.178 60.556 31.088 61.08 31.088 61.68C31.088 62.28 31.178 62.8 31.358 63.24C31.542 63.68 31.816 64.022 32.18 64.266C32.544 64.51 33 64.636 33.548 64.644Z" fill="#AAAAAA"/>
</g>
<g id="Group_4" opacity="0.75">
<path id="Vector_17" d="M124.8 53C125.35 53 125.8 53.45 125.8 54V69.92C125.8 70.47 125.35 70.92 124.8 70.92H26C25.45 70.92 25 70.47 25 69.92V54C25 53.45 25.45 53 26 53H124.8ZM124.8 51H26C24.34 51 23 52.34 23 54V69.92C23 71.58 24.34 72.92 26 72.92H124.8C126.46 72.92 127.8 71.58 127.8 69.92V54C127.8 52.34 126.46 51 124.8 51Z" fill="#AAAAAA"/>
</g>
</g>
<defs>
<clipPath id="clip0_82_66">
<rect x="23" y="18" width="33" height="13" rx="6.5" fill="white"/>
</clipPath>
<clipPath id="clip1_82_66">
<rect width="83" height="17" fill="white" transform="translate(34 36)"/>
</clipPath>
</defs>
</svg>
