<svg viewBox="0 0 150 100" fill="none" xmlns="http://www.w3.org/2000/svg">
<g id="crm-questionaire-option">
<path id="Rectangle 1" d="M16 15C16 12.7909 17.7909 11 20 11H131C132.657 11 134 12.3431 134 14V86C134 87.6569 132.657 89 131 89H19C17.3431 89 16 87.6569 16 86V15Z" stroke="#AAAAAA" stroke-width="2" stroke-linecap="round" stroke-dasharray="5 5"/>
<g id="Badge">
<g clip-path="url(#clip0_82_93)">
<rect x="23" y="18" width="33" height="13" rx="6.5" fill="#2B8C42"/>
<path id="CRM" d="M31.79 28.65C31.07 28.65 30.4483 28.4933 29.925 28.18C29.405 27.8667 29.0033 27.4283 28.72 26.865C28.44 26.3017 28.3 25.6467 28.3 24.9C28.3 24.1533 28.44 23.4983 28.72 22.935C29.0033 22.3717 29.405 21.9333 29.925 21.62C30.4483 21.3067 31.07 21.15 31.79 21.15C32.6167 21.15 33.31 21.355 33.87 21.765C34.4333 22.175 34.83 22.73 35.06 23.43L33.69 23.81C33.5567 23.3733 33.3317 23.035 33.015 22.795C32.6983 22.5517 32.29 22.43 31.79 22.43C31.3333 22.43 30.9517 22.5317 30.645 22.735C30.3417 22.9383 30.1133 23.225 29.96 23.595C29.8067 23.965 29.73 24.4 29.73 24.9C29.73 25.4 29.8067 25.835 29.96 26.205C30.1133 26.575 30.3417 26.8617 30.645 27.065C30.9517 27.2683 31.3333 27.37 31.79 27.37C32.29 27.37 32.6983 27.2483 33.015 27.005C33.3317 26.7617 33.5567 26.4233 33.69 25.99L35.06 26.37C34.83 27.07 34.4333 27.625 33.87 28.035C33.31 28.445 32.6167 28.65 31.79 28.65ZM36.1609 28.5V21.3H39.2009C39.2709 21.3 39.3643 21.3033 39.4809 21.31C39.6009 21.3133 39.7076 21.3233 39.8009 21.34C40.2309 21.4067 40.5826 21.5483 40.8559 21.765C41.1326 21.9817 41.3359 22.255 41.4659 22.585C41.5959 22.9117 41.6609 23.2767 41.6609 23.68C41.6609 24.2833 41.5109 24.8 41.2109 25.23C40.9109 25.6567 40.4409 25.92 39.8009 26.02L39.2009 26.06H37.5209V28.5H36.1609ZM40.2209 28.5L38.8009 25.57L40.2009 25.3L41.7609 28.5H40.2209ZM37.5209 24.79H39.1409C39.2109 24.79 39.2876 24.7867 39.3709 24.78C39.4543 24.7733 39.5309 24.76 39.6009 24.74C39.7843 24.69 39.9259 24.6067 40.0259 24.49C40.1259 24.37 40.1943 24.2383 40.2309 24.095C40.2709 23.9483 40.2909 23.81 40.2909 23.68C40.2909 23.55 40.2709 23.4133 40.2309 23.27C40.1943 23.1233 40.1259 22.9917 40.0259 22.875C39.9259 22.755 39.7843 22.67 39.6009 22.62C39.5309 22.6 39.4543 22.5867 39.3709 22.58C39.2876 22.5733 39.2109 22.57 39.1409 22.57H37.5209V24.79ZM42.8602 28.5V21.3H44.0802L46.4602 26.08L48.8402 21.3H50.0602V28.5H48.7902V24.2L46.7002 28.5H46.2202L44.1302 24.2V28.5H42.8602Z" fill="white"/>
</g>
</g>
<g id="Ebene_1" clip-path="url(#clip1_82_93)">
<g id="Group" opacity="0.25">
<path id="Vector" d="M124.8 58H26C24.3431 58 23 59.3431 23 61V76.92C23 78.5769 24.3431 79.92 26 79.92H124.8C126.457 79.92 127.8 78.5769 127.8 76.92V61C127.8 59.3431 126.457 58 124.8 58Z" fill="#AAAAAA" fill-opacity="0.75"/>
</g>
<g id="Group_2" opacity="0.75">
<path id="Vector_2" d="M124.8 60C125.35 60 125.8 60.45 125.8 61V76.92C125.8 77.47 125.35 77.92 124.8 77.92H26C25.45 77.92 25 77.47 25 76.92V61C25 60.45 25.45 60 26 60H124.8ZM124.8 58H26C24.34 58 23 59.34 23 61V76.92C23 78.58 24.34 79.92 26 79.92H124.8C126.46 79.92 127.8 78.58 127.8 76.92V61C127.8 59.34 126.46 58 124.8 58Z" fill="#AAAAAA"/>
</g>
<path id="Vector_3" d="M32.65 74.2C32.01 74.2 31.43 74.09 30.92 73.86C30.41 73.63 29.98 73.31 29.65 72.89C29.32 72.47 29.11 71.97 29.02 71.38L30.72 71.13C30.84 71.63 31.09 72.01 31.46 72.28C31.84 72.55 32.26 72.68 32.74 72.68C33.01 72.68 33.27 72.64 33.52 72.55C33.77 72.46 33.98 72.34 34.14 72.18C34.3 72.02 34.38 71.81 34.38 71.57C34.38 71.48 34.37 71.4 34.34 71.32C34.31 71.24 34.27 71.16 34.21 71.09C34.15 71.02 34.06 70.95 33.95 70.89C33.84 70.83 33.7 70.77 33.53 70.72L31.29 70.06C31.12 70.01 30.93 69.94 30.7 69.86C30.48 69.77 30.26 69.65 30.06 69.48C29.86 69.31 29.68 69.1 29.54 68.83C29.4 68.56 29.33 68.22 29.33 67.81C29.33 67.23 29.48 66.75 29.77 66.36C30.06 65.98 30.45 65.69 30.94 65.5C31.43 65.31 31.97 65.22 32.56 65.22C33.16 65.22 33.69 65.33 34.16 65.53C34.63 65.73 35.02 66.01 35.34 66.38C35.66 66.75 35.88 67.21 36.02 67.75L34.26 68.05C34.2 67.77 34.08 67.53 33.91 67.34C33.74 67.15 33.53 67 33.29 66.9C33.05 66.8 32.8 66.75 32.54 66.74C32.28 66.74 32.04 66.77 31.82 66.84C31.59 66.92 31.41 67.03 31.27 67.18C31.13 67.33 31.06 67.5 31.06 67.71C31.06 67.9 31.12 68.05 31.23 68.17C31.35 68.29 31.49 68.38 31.67 68.45C31.85 68.52 32.03 68.58 32.21 68.63L33.71 69.04C33.93 69.1 34.18 69.18 34.45 69.28C34.72 69.38 34.98 69.51 35.23 69.69C35.48 69.87 35.69 70.09 35.85 70.38C36.01 70.66 36.09 71.02 36.09 71.46C36.09 71.92 35.99 72.33 35.8 72.68C35.61 73.03 35.34 73.31 35.02 73.54C34.69 73.77 34.32 73.94 33.91 74.05C33.5 74.16 33.07 74.22 32.63 74.22L32.65 74.2Z" fill="#AAAAAA"/>
<path id="Vector_4" d="M40.45 74.2C39.79 74.2 39.2 74.06 38.7 73.77C38.2 73.48 37.8 73.09 37.51 72.59C37.22 72.09 37.08 71.51 37.08 70.86C37.08 70.15 37.22 69.54 37.5 69.01C37.78 68.49 38.17 68.08 38.66 67.79C39.15 67.5 39.72 67.35 40.36 67.35C41.04 67.35 41.62 67.51 42.09 67.83C42.57 68.15 42.92 68.6 43.15 69.18C43.38 69.76 43.46 70.44 43.39 71.23H41.78V70.63C41.78 69.97 41.68 69.5 41.47 69.21C41.26 68.92 40.92 68.77 40.44 68.77C39.88 68.77 39.48 68.94 39.21 69.28C38.95 69.62 38.82 70.12 38.82 70.78C38.82 71.38 38.95 71.85 39.21 72.18C39.47 72.51 39.86 72.68 40.37 72.68C40.69 72.68 40.96 72.61 41.19 72.47C41.42 72.33 41.59 72.13 41.71 71.86L43.34 72.33C43.1 72.92 42.71 73.38 42.18 73.71C41.65 74.04 41.08 74.2 40.45 74.2ZM38.3 71.24V70.03H42.6V71.24H38.3Z" fill="#AAAAAA"/>
<path id="Vector_5" d="M44.85 74.02V65.2H46.48V74.02H44.85Z" fill="#AAAAAA"/>
<path id="Vector_6" d="M51.3001 74.2C50.6401 74.2 50.0501 74.06 49.5501 73.77C49.0501 73.48 48.6501 73.09 48.3601 72.59C48.0701 72.09 47.9301 71.51 47.9301 70.86C47.9301 70.15 48.0701 69.54 48.3501 69.01C48.6301 68.49 49.0201 68.08 49.5101 67.79C50.0001 67.5 50.5701 67.35 51.2101 67.35C51.8901 67.35 52.4701 67.51 52.9401 67.83C53.4201 68.15 53.7701 68.6 54.0001 69.18C54.2301 69.76 54.3101 70.44 54.2401 71.23H52.6301V70.63C52.6301 69.97 52.5301 69.5 52.3201 69.21C52.1101 68.92 51.7701 68.77 51.2901 68.77C50.7301 68.77 50.3301 68.94 50.0601 69.28C49.8001 69.62 49.6701 70.12 49.6701 70.78C49.6701 71.38 49.8001 71.85 50.0601 72.18C50.3201 72.51 50.7101 72.68 51.2201 72.68C51.5401 72.68 51.8101 72.61 52.0401 72.47C52.2701 72.33 52.4401 72.13 52.5601 71.86L54.1901 72.33C53.9501 72.92 53.5601 73.38 53.0301 73.71C52.5001 74.04 51.9301 74.2 51.3001 74.2ZM49.1501 71.24V70.03H53.4501V71.24H49.1501Z" fill="#AAAAAA"/>
<path id="Vector_7" d="M58.44 74.2C57.77 74.2 57.19 74.05 56.71 73.75C56.23 73.45 55.86 73.04 55.61 72.53C55.35 72.01 55.23 71.43 55.23 70.78C55.23 70.13 55.36 69.54 55.63 69.02C55.9 68.5 56.27 68.1 56.75 67.8C57.23 67.5 57.81 67.36 58.47 67.36C59.23 67.36 59.88 67.55 60.39 67.94C60.91 68.33 61.24 68.85 61.38 69.52L59.75 69.95C59.65 69.61 59.49 69.35 59.25 69.16C59.01 68.97 58.74 68.88 58.44 68.88C58.1 68.88 57.81 68.96 57.59 69.13C57.37 69.3 57.21 69.52 57.1 69.81C57 70.1 56.94 70.42 56.94 70.78C56.94 71.34 57.06 71.8 57.32 72.15C57.57 72.5 57.94 72.68 58.43 72.68C58.8 72.68 59.08 72.6 59.27 72.43C59.46 72.26 59.61 72.02 59.7 71.71L61.37 72.06C61.19 72.75 60.84 73.28 60.33 73.65C59.82 74.02 59.19 74.21 58.43 74.21L58.44 74.2Z" fill="#AAAAAA"/>
<path id="Vector_8" d="M61.86 68.8V67.54H66.47V68.8H61.86ZM66.47 74.02C66.02 74.1 65.58 74.14 65.15 74.13C64.72 74.12 64.34 74.04 64 73.9C63.66 73.76 63.41 73.53 63.23 73.21C63.07 72.91 62.99 72.61 62.98 72.31C62.98 72 62.97 71.66 62.97 71.27V65.74H64.6V71.18C64.6 71.43 64.6 71.66 64.6 71.86C64.6 72.06 64.65 72.22 64.72 72.34C64.86 72.57 65.09 72.69 65.41 72.71C65.73 72.73 66.08 72.71 66.46 72.66V74.02H66.47Z" fill="#AAAAAA"/>
<path id="Vector_9" d="M109.31 66.63L113.29 70.61C113.76 71.08 114.53 71.08 115.01 70.61L119.23 66.39" stroke="#AAAAAA" stroke-width="1.76" stroke-linecap="round" stroke-linejoin="round"/>
</g>
</g>
<defs>
<clipPath id="clip0_82_93">
<rect x="23" y="18" width="33" height="13" rx="6.5" fill="white"/>
</clipPath>
<clipPath id="clip1_82_93">
<rect width="104.8" height="21.92" fill="white" transform="translate(23 58)"/>
</clipPath>
</defs>
</svg>
