<svg viewBox="0 0 150 100" fill="none" xmlns="http://www.w3.org/2000/svg">
<g id="crm-questionaire-checkbox">
<path id="Rectangle 1" d="M16 15C16 12.7909 17.7909 11 20 11H131C132.657 11 134 12.3431 134 14V86C134 87.6569 132.657 89 131 89H19C17.3431 89 16 87.6569 16 86V15Z" stroke="#AAAAAA" stroke-width="2" stroke-linecap="round" stroke-dasharray="5 5"/>
<g id="Badge">
<g clip-path="url(#clip0_82_103)">
<rect x="23" y="18" width="33" height="13" rx="6.5" fill="#2B8C42"/>
<path id="CRM" d="M31.79 28.65C31.07 28.65 30.4483 28.4933 29.925 28.18C29.405 27.8667 29.0033 27.4283 28.72 26.865C28.44 26.3017 28.3 25.6467 28.3 24.9C28.3 24.1533 28.44 23.4983 28.72 22.935C29.0033 22.3717 29.405 21.9333 29.925 21.62C30.4483 21.3067 31.07 21.15 31.79 21.15C32.6167 21.15 33.31 21.355 33.87 21.765C34.4333 22.175 34.83 22.73 35.06 23.43L33.69 23.81C33.5567 23.3733 33.3317 23.035 33.015 22.795C32.6983 22.5517 32.29 22.43 31.79 22.43C31.3333 22.43 30.9517 22.5317 30.645 22.735C30.3417 22.9383 30.1133 23.225 29.96 23.595C29.8067 23.965 29.73 24.4 29.73 24.9C29.73 25.4 29.8067 25.835 29.96 26.205C30.1133 26.575 30.3417 26.8617 30.645 27.065C30.9517 27.2683 31.3333 27.37 31.79 27.37C32.29 27.37 32.6983 27.2483 33.015 27.005C33.3317 26.7617 33.5567 26.4233 33.69 25.99L35.06 26.37C34.83 27.07 34.4333 27.625 33.87 28.035C33.31 28.445 32.6167 28.65 31.79 28.65ZM36.1609 28.5V21.3H39.2009C39.2709 21.3 39.3643 21.3033 39.4809 21.31C39.6009 21.3133 39.7076 21.3233 39.8009 21.34C40.2309 21.4067 40.5826 21.5483 40.8559 21.765C41.1326 21.9817 41.3359 22.255 41.4659 22.585C41.5959 22.9117 41.6609 23.2767 41.6609 23.68C41.6609 24.2833 41.5109 24.8 41.2109 25.23C40.9109 25.6567 40.4409 25.92 39.8009 26.02L39.2009 26.06H37.5209V28.5H36.1609ZM40.2209 28.5L38.8009 25.57L40.2009 25.3L41.7609 28.5H40.2209ZM37.5209 24.79H39.1409C39.2109 24.79 39.2876 24.7867 39.3709 24.78C39.4543 24.7733 39.5309 24.76 39.6009 24.74C39.7843 24.69 39.9259 24.6067 40.0259 24.49C40.1259 24.37 40.1943 24.2383 40.2309 24.095C40.2709 23.9483 40.2909 23.81 40.2909 23.68C40.2909 23.55 40.2709 23.4133 40.2309 23.27C40.1943 23.1233 40.1259 22.9917 40.0259 22.875C39.9259 22.755 39.7843 22.67 39.6009 22.62C39.5309 22.6 39.4543 22.5867 39.3709 22.58C39.2876 22.5733 39.2109 22.57 39.1409 22.57H37.5209V24.79ZM42.8602 28.5V21.3H44.0802L46.4602 26.08L48.8402 21.3H50.0602V28.5H48.7902V24.2L46.7002 28.5H46.2202L44.1302 24.2V28.5H42.8602Z" fill="white"/>
</g>
</g>
<g id="Group 54">
<g id="Group" opacity="0.75">
<path id="Vector" d="M47.94 65.5C48.49 65.5 48.94 65.95 48.94 66.5V77.44C48.94 77.99 48.49 78.44 47.94 78.44H37C36.45 78.44 36 77.99 36 77.44V66.5C36 65.95 36.45 65.5 37 65.5H47.94ZM47.94 63.5H37C35.34 63.5 34 64.84 34 66.5V77.44C34 79.1 35.34 80.44 37 80.44H47.94C49.6 80.44 50.94 79.1 50.94 77.44V66.5C50.94 64.84 49.6 63.5 47.94 63.5Z" fill="#AAAAAA"/>
</g>
<path id="Vector_2" d="M50.82 62L43.66 74.26L37.99 70" stroke="#AAAAAA" stroke-width="3" stroke-linecap="round" stroke-linejoin="round"/>
<path id="Checkbox" d="M60.548 76.68C59.684 76.68 58.938 76.492 58.31 76.116C57.686 75.74 57.204 75.214 56.864 74.538C56.528 73.862 56.36 73.076 56.36 72.18C56.36 71.284 56.528 70.498 56.864 69.822C57.204 69.146 57.686 68.62 58.31 68.244C58.938 67.868 59.684 67.68 60.548 67.68C61.54 67.68 62.372 67.926 63.044 68.418C63.72 68.91 64.196 69.576 64.472 70.416L62.828 70.872C62.668 70.348 62.398 69.942 62.018 69.654C61.638 69.362 61.148 69.216 60.548 69.216C60 69.216 59.542 69.338 59.174 69.582C58.81 69.826 58.536 70.17 58.352 70.614C58.168 71.058 58.076 71.58 58.076 72.18C58.076 72.78 58.168 73.302 58.352 73.746C58.536 74.19 58.81 74.534 59.174 74.778C59.542 75.022 60 75.144 60.548 75.144C61.148 75.144 61.638 74.998 62.018 74.706C62.398 74.414 62.668 74.008 62.828 73.488L64.472 73.944C64.196 74.784 63.72 75.45 63.044 75.942C62.372 76.434 61.54 76.68 60.548 76.68ZM70.2091 76.5V73.44C70.2091 73.292 70.2011 73.104 70.1851 72.876C70.1691 72.644 70.1191 72.412 70.0351 72.18C69.9511 71.948 69.8131 71.754 69.6211 71.598C69.4331 71.442 69.1651 71.364 68.8171 71.364C68.6771 71.364 68.5271 71.386 68.3671 71.43C68.2071 71.474 68.0571 71.56 67.9171 71.688C67.7771 71.812 67.6611 71.996 67.5691 72.24C67.4811 72.484 67.4371 72.808 67.4371 73.212L66.5011 72.768C66.5011 72.256 66.6051 71.776 66.8131 71.328C67.0211 70.88 67.3331 70.518 67.7491 70.242C68.1691 69.966 68.6971 69.828 69.3331 69.828C69.8411 69.828 70.2551 69.914 70.5751 70.086C70.8951 70.258 71.1431 70.476 71.3191 70.74C71.4991 71.004 71.6271 71.28 71.7031 71.568C71.7791 71.852 71.8251 72.112 71.8411 72.348C71.8571 72.584 71.8651 72.756 71.8651 72.864V76.5H70.2091ZM65.7811 76.5V67.86H67.2331V72.3H67.4371V76.5H65.7811ZM76.434 76.68C75.77 76.68 75.184 76.538 74.676 76.254C74.172 75.966 73.776 75.572 73.488 75.072C73.204 74.568 73.062 73.992 73.062 73.344C73.062 72.636 73.202 72.02 73.482 71.496C73.762 70.972 74.148 70.566 74.64 70.278C75.132 69.986 75.698 69.84 76.338 69.84C77.018 69.84 77.596 70 78.072 70.32C78.548 70.64 78.9 71.09 79.128 71.67C79.356 72.25 79.436 72.932 79.368 73.716H77.754V73.116C77.754 72.456 77.648 71.982 77.436 71.694C77.228 71.402 76.886 71.256 76.41 71.256C75.854 71.256 75.444 71.426 75.18 71.766C74.92 72.102 74.79 72.6 74.79 73.26C74.79 73.864 74.92 74.332 75.18 74.664C75.444 74.992 75.83 75.156 76.338 75.156C76.658 75.156 76.932 75.086 77.16 74.946C77.388 74.806 77.562 74.604 77.682 74.34L79.314 74.808C79.07 75.4 78.684 75.86 78.156 76.188C77.632 76.516 77.058 76.68 76.434 76.68ZM74.286 73.716V72.504H78.582V73.716H74.286ZM83.5788 76.68C82.9068 76.68 82.3308 76.53 81.8508 76.23C81.3708 75.93 81.0028 75.522 80.7468 75.006C80.4908 74.49 80.3628 73.908 80.3628 73.26C80.3628 72.604 80.4948 72.018 80.7588 71.502C81.0268 70.986 81.4028 70.58 81.8868 70.284C82.3708 69.988 82.9428 69.84 83.6028 69.84C84.3668 69.84 85.0068 70.034 85.5228 70.422C86.0428 70.806 86.3748 71.332 86.5188 72L84.8868 72.432C84.7908 72.096 84.6228 71.834 84.3828 71.646C84.1468 71.458 83.8788 71.364 83.5788 71.364C83.2348 71.364 82.9528 71.448 82.7328 71.616C82.5128 71.78 82.3508 72.006 82.2468 72.294C82.1428 72.578 82.0908 72.9 82.0908 73.26C82.0908 73.824 82.2148 74.282 82.4628 74.634C82.7148 74.982 83.0868 75.156 83.5788 75.156C83.9468 75.156 84.2268 75.072 84.4188 74.904C84.6108 74.736 84.7548 74.496 84.8508 74.184L86.5188 74.532C86.3348 75.22 85.9868 75.75 85.4748 76.122C84.9628 76.494 84.3308 76.68 83.5788 76.68ZM87.7069 76.5L87.7189 67.86H89.3749V73.14L91.5709 70.02H93.5869L91.2469 73.26L93.7429 76.5H91.6189L89.3749 73.38V76.5H87.7069ZM97.52 76.68C96.876 76.68 96.338 76.53 95.906 76.23C95.474 75.93 95.148 75.522 94.928 75.006C94.712 74.49 94.604 73.908 94.604 73.26C94.604 72.612 94.712 72.03 94.928 71.514C95.144 70.998 95.462 70.59 95.882 70.29C96.302 69.99 96.82 69.84 97.436 69.84C98.056 69.84 98.596 69.988 99.056 70.284C99.516 70.58 99.872 70.986 100.124 71.502C100.38 72.014 100.508 72.6 100.508 73.26C100.508 73.908 100.382 74.49 100.13 75.006C99.882 75.522 99.534 75.93 99.086 76.23C98.638 76.53 98.116 76.68 97.52 76.68ZM94.328 76.5V67.86H95.972V72.06H95.768V76.5H94.328ZM97.256 75.228C97.608 75.228 97.896 75.14 98.12 74.964C98.344 74.788 98.51 74.552 98.618 74.256C98.726 73.956 98.78 73.624 98.78 73.26C98.78 72.9 98.724 72.572 98.612 72.276C98.5 71.976 98.326 71.738 98.09 71.562C97.858 71.382 97.56 71.292 97.196 71.292C96.856 71.292 96.58 71.374 96.368 71.538C96.16 71.702 96.008 71.932 95.912 72.228C95.816 72.524 95.768 72.868 95.768 73.26C95.768 73.652 95.816 73.996 95.912 74.292C96.008 74.588 96.164 74.818 96.38 74.982C96.6 75.146 96.892 75.228 97.256 75.228ZM104.744 76.68C104.092 76.68 103.52 76.534 103.028 76.242C102.536 75.95 102.152 75.548 101.876 75.036C101.604 74.52 101.468 73.928 101.468 73.26C101.468 72.584 101.608 71.99 101.888 71.478C102.168 70.962 102.554 70.56 103.046 70.272C103.538 69.984 104.104 69.84 104.744 69.84C105.396 69.84 105.968 69.986 106.46 70.278C106.956 70.57 107.342 70.974 107.618 71.49C107.894 72.002 108.032 72.592 108.032 73.26C108.032 73.932 107.892 74.526 107.612 75.042C107.336 75.554 106.95 75.956 106.454 76.248C105.962 76.536 105.392 76.68 104.744 76.68ZM104.744 75.156C105.268 75.156 105.658 74.98 105.914 74.628C106.174 74.272 106.304 73.816 106.304 73.26C106.304 72.684 106.172 72.224 105.908 71.88C105.648 71.536 105.26 71.364 104.744 71.364C104.388 71.364 104.096 71.444 103.868 71.604C103.64 71.764 103.47 71.986 103.358 72.27C103.25 72.554 103.196 72.884 103.196 73.26C103.196 73.84 103.326 74.302 103.586 74.646C103.85 74.986 104.236 75.156 104.744 75.156ZM108.397 76.5L110.713 73.224L108.445 70.02H110.365L111.661 71.94L112.933 70.02H114.853L112.585 73.224L114.913 76.5H112.993L111.661 74.508L110.317 76.5H108.397Z" fill="#AAAAAA"/>
</g>
</g>
<defs>
<clipPath id="clip0_82_103">
<rect x="23" y="18" width="33" height="13" rx="6.5" fill="white"/>
</clipPath>
</defs>
</svg>
